<svg width="16" height="20" viewBox="0 0 16 20" fill="none"
 xmlns="http://www.w3.org/2000/svg">
<path d="M5.871 3.937c-.004-.031-.009-.057-.009-.082 0-.323.003-.646-.002-.97-.002-.096.035-.14.121-.157.327-.064.653-.152.983-.187.424-.044.85-.06 1.276-.06 1.206.001 2.35.28 3.4.883 1.9 1.093 3.245 2.68 3.955 4.8.347 1.032.458 2.1.382 3.18-.162 2.3-1.137 4.196-2.831 5.714a7.506 7.506 0 01-3.658 1.81 7.978 7.978 0 01-1.93.14c-2.132-.112-3.894-1.03-5.358-2.586-.859-.914-1.503-1.961-1.867-3.178a7.23 7.23 0 01-.31-1.765A21.941 21.941 0 010 10.591V.226C0 .02 0 .02.2.02.456.02.71.025.966.018c.116-.003.153.039.152.156-.005.574-.002 1.148-.002 1.723-.001 3.024-.012 6.048 0 9.072.008 1.72.6 3.22 1.737 4.496.748.837 1.612 1.51 2.648 1.937a6.302 6.302 0 002.062.457 6.84 6.84 0 002.946-.472c1.075-.427 1.962-1.128 2.708-2.022a6.943 6.943 0 001.535-3.243c.122-.66.15-1.324.096-1.993-.099-1.223-.472-2.349-1.162-3.356-.811-1.186-1.831-2.127-3.157-2.688-.919-.388-1.88-.518-2.868-.465-.584.03-1.16.13-1.72.309-.019.006-.04.005-.07.008z" fill="#0CAF97"></path>
<path d="M5.863 7.146c0-.41-.004-.812.005-1.215.001-.044.064-.102.112-.125a4.18 4.18 0 011.2-.351c.82-.11 1.63-.052 2.417.227.746.265 1.377.711 1.926 1.287.677.709 1.175 1.522 1.375 2.5.36 1.756.016 3.342-1.137 4.723-.698.836-1.548 1.438-2.608 1.683-1.914.443-3.534-.084-4.852-1.568a5.133 5.133 0 01-1.244-2.526 4.201 4.201 0 01-.07-.68c-.01-.606-.005-1.211-.01-1.817L2.96 6.028 2.926.2C2.925.003 2.925.003 3.11.002c.26 0 .52.005.78-.002.123-.004.157.04.157.164 0 1.723.003 3.445.008 5.169.005 1.794.013 3.588.02 5.383.004 1.009.3 1.911.938 2.69.599.732 1.323 1.27 2.265 1.42 1.145.183 2.198-.05 3.097-.83.72-.627 1.247-1.388 1.44-2.351.322-1.616-.116-2.984-1.313-4.096-.54-.502-1.164-.833-1.891-.945-.938-.144-1.832-.034-2.646.503l-.068.04h-.035z" fill="#0CAF97"></path>
</svg>